<?xml version="1.0" standalone="no"?>
<!DOCTYPE svg PUBLIC "-//W3C//DTD SVG 20010904//EN"
 "http://www.w3.org/TR/2001/REC-SVG-20010904/DTD/svg10.dtd">
<svg version="1.0" xmlns="http://www.w3.org/2000/svg"
 width="811.000000pt" height="242.000000pt" viewBox="0 0 811.000000 242.000000"
 preserveAspectRatio="xMidYMid meet">

<g transform="translate(0.000000,242.000000) scale(0.100000,-0.100000)"
fill="#000000" stroke="none">
<path d="M1541 2371 c-57 -71 -85 -148 -85 -226 0 -40 7 -85 16 -106 l15 -35
72 10 c192 26 386 -49 551 -214 325 -326 342 -878 35 -1186 -59 -59 -100 -90
-155 -118 -62 -30 -99 -61 -215 -175 -77 -76 -187 -178 -245 -226 l-105 -88
74 7 c149 13 355 102 511 220 343 258 551 669 525 1035 -27 379 -252 708 -670
980 -94 61 -273 161 -288 161 -3 0 -19 -18 -36 -39z"/>
<path d="M2863 1580 c-21 -13 -35 -31 -42 -57 -14 -49 -14 -635 -1 -684 21
-73 21 -74 309 -77 192 -2 262 1 281 11 44 22 60 70 60 183 l0 102 -44 11
c-25 6 -47 11 -50 11 -3 0 -7 -46 -8 -102 l-3 -103 -225 0 -225 0 0 305 0 305
225 0 225 0 3 -93 3 -93 32 6 c71 14 67 8 67 108 0 103 -17 153 -60 174 -18 9
-94 13 -270 13 -225 0 -248 -2 -277 -20z"/>
<path d="M3813 1580 c-21 -13 -35 -31 -42 -57 -14 -49 -14 -635 -1 -684 21
-75 16 -74 354 -77 284 -2 303 -1 333 17 21 13 35 33 42 58 7 23 11 160 11
345 0 261 -2 314 -16 348 -28 69 -35 70 -361 70 -268 0 -290 -1 -320 -20z
m592 -400 l0 -305 -270 0 -270 0 -3 295 c-1 162 0 301 3 308 3 10 62 12 272
10 l268 -3 0 -305z"/>
<path d="M4850 1180 l0 -422 253 4 c252 3 252 3 303 30 88 46 141 129 168 261
20 94 20 171 2 258 -27 124 -85 212 -170 257 -51 27 -51 27 -303 30 l-253 4 0
-422z m473 289 c60 -20 113 -72 134 -132 22 -64 25 -229 4 -299 -19 -68 -70
-123 -134 -144 -41 -14 -86 -18 -212 -19 l-160 0 -3 295 c-1 162 0 301 3 309
4 11 35 13 168 8 89 -3 179 -11 200 -18z"/>
<path d="M5870 1180 l0 -420 55 0 55 0 0 420 0 420 -55 0 -55 0 0 -420z"/>
<path d="M6320 1180 l0 -420 45 0 45 0 0 336 0 336 37 -49 c20 -26 147 -177
282 -335 229 -270 247 -288 278 -288 l33 0 0 420 0 420 -51 0 -51 0 4 -330 c1
-182 2 -330 2 -330 -1 0 -14 19 -29 42 -15 23 -140 172 -277 330 -237 274
-251 288 -283 288 l-35 0 0 -420z"/>
<path d="M7429 1585 c-51 -27 -54 -52 -54 -405 0 -355 3 -378 56 -405 41 -22
567 -22 608 -1 48 25 55 55 59 259 l4 187 -186 0 -186 0 0 -50 0 -50 130 0
130 0 0 -125 0 -125 -255 0 -255 0 0 310 0 310 255 0 255 0 0 -66 0 -66 26 6
c15 4 39 10 55 13 26 5 29 9 29 45 0 67 -20 126 -52 153 l-30 25 -281 0 c-224
-1 -287 -4 -308 -15z"/>
<path d="M735 1546 c-40 -17 -82 -67 -95 -114 -13 -49 -13 -262 1 -315 12 -50
34 -78 80 -106 33 -20 46 -21 542 -21 485 0 509 1 546 20 22 11 50 36 62 57
22 34 24 52 27 183 4 159 -3 201 -45 251 -51 60 -45 59 -590 59 -391 -1 -505
-4 -528 -14z m135 -221 l0 -145 85 0 85 0 0 -30 0 -30 -120 0 -120 0 0 175 0
175 35 0 35 0 0 -145z m433 133 c12 -6 27 -18 34 -27 18 -24 16 -78 -5 -98
-17 -17 -17 -19 1 -33 12 -10 21 -34 24 -61 5 -41 2 -50 -25 -80 l-30 -34
-111 -3 -111 -4 0 176 0 176 101 0 c57 0 110 -5 122 -12z m257 -118 c18 -71
34 -130 35 -130 1 0 17 59 35 130 l32 130 54 0 54 0 0 -175 0 -175 -35 0 -35
0 -1 133 -1 132 -27 -105 c-15 -58 -31 -117 -34 -132 -6 -24 -13 -28 -42 -28
-29 0 -36 4 -42 28 -3 15 -19 74 -34 132 l-27 105 -1 -132 -1 -133 -35 0 -35
0 0 175 0 175 54 0 54 0 32 -130z"/>
<path d="M1150 1375 l0 -35 53 0 c55 0 77 12 77 41 0 22 -20 29 -81 29 l-49 0
0 -35z"/>
<path d="M1150 1230 l0 -50 58 0 c64 0 82 11 82 50 0 39 -18 50 -82 50 l-58 0
0 -50z"/>
</g>
</svg>
